<?xml version="1.0" standalone="no"?>
<!DOCTYPE svg PUBLIC "-//W3C//DTD SVG 20010904//EN"
 "http://www.w3.org/TR/2001/REC-SVG-20010904/DTD/svg10.dtd">
<svg version="1.0" xmlns="http://www.w3.org/2000/svg"
 width="192.000000pt" height="192.000000pt" viewBox="0 0 192.000000 192.000000"
 preserveAspectRatio="xMidYMid meet">
<metadata>
Created by potrace 1.10, written by Peter Selinger 2001-2011
</metadata>
<g transform="translate(0.000000,192.000000) scale(0.100000,-0.100000)"
fill="#000000" stroke="none">
<path d="M758 1167 c-91 -105 -175 -202 -185 -215 l-18 -22 -51 49 c-28 28
-55 51 -61 53 -5 2 -83 -87 -172 -197 -90 -110 -177 -215 -194 -232 -17 -18
-28 -35 -25 -38 6 -6 1709 -7 1715 -1 8 8 -409 606 -422 606 -8 0 -18 -6 -22
-14 -4 -7 -31 -38 -59 -69 l-52 -56 -108 131 c-60 73 -120 147 -133 165 -13
18 -29 33 -35 33 -6 0 -86 -87 -178 -193z m153 58 l-19 -76 40 -71 c21 -38 37
-72 35 -75 -3 -2 -21 10 -41 28 -20 17 -38 30 -40 28 -3 -3 -74 -173 -104
-249 -3 -8 31 16 76 54 46 38 85 67 87 64 2 -2 -9 -24 -24 -48 -15 -25 -44
-75 -64 -112 l-36 -67 55 -12 c30 -7 57 -16 59 -20 3 -3 -38 -8 -90 -11 -94
-4 -95 -4 -133 -41 l-38 -37 -112 0 c-62 0 -112 3 -112 8 1 4 63 43 139 87
l138 80 -23 27 -23 28 35 87 c19 49 34 89 34 91 0 2 -41 -33 -92 -77 -51 -44
-94 -79 -96 -76 -2 2 15 30 37 63 22 33 36 62 31 64 -6 2 58 83 142 180 84 97
154 173 156 169 2 -5 -6 -43 -17 -86z m167 -93 c53 -64 106 -137 118 -162 41
-89 91 -129 122 -98 6 6 26 12 43 12 49 1 57 25 31 88 -23 57 -27 78 -14 78
14 0 31 -23 171 -227 72 -105 131 -199 131 -207 0 -14 -46 -16 -427 -15 -415
1 -426 1 -374 18 78 24 96 68 36 91 -14 5 -25 15 -25 22 1 7 18 49 40 93 35
71 38 82 26 100 -10 14 -23 19 -45 18 -28 -3 -30 -1 -22 20 7 16 16 21 37 20
31 -3 64 21 64 47 0 9 -11 39 -25 66 -14 27 -25 58 -25 69 0 36 21 96 31 89 5
-3 54 -58 107 -122z m257 -57 c-12 -55 -12 -56 21 -112 19 -31 32 -58 29 -61
-3 -3 -19 7 -35 23 -16 16 -32 27 -34 24 -2 -2 -8 -20 -13 -39 l-9 -35 -37 58
c-20 31 -37 60 -37 63 0 8 114 133 122 134 3 0 0 -25 -7 -55z m-899 -107 c-32
-119 -47 -222 -37 -244 6 -14 11 -29 11 -34 0 -17 -28 -11 -39 7 -9 17 -12 16
-35 -6 -31 -29 -34 -16 -11 48 8 22 11 41 7 41 -13 0 -88 -94 -118 -147 -28
-51 -31 -53 -71 -53 -38 0 -58 12 -35 22 9 3 286 339 305 369 16 26 31 24 23
-3z m79 -52 c26 -20 31 -30 28 -53 -7 -45 18 -61 64 -39 19 9 37 16 38 14 1
-2 5 -19 9 -39 l6 -37 -95 -57 c-53 -31 -108 -68 -124 -81 -25 -21 -39 -24
-110 -24 -83 0 -91 4 -69 39 10 16 20 18 75 13 81 -6 108 13 99 69 -5 30 14
166 29 207 6 17 14 15 50 -12z"/>
</g>
</svg>
